<svg xmlns="http://www.w3.org/2000/svg" width="140" height="32" fill="none" viewBox="0 0 140 32"><path fill="#fff" d="M.737 31.297V9.227h8.788q4.374 0 6.581 1.486 2.206 1.485 2.206 4.395 0 1.546-1.071 2.737-1.071 1.19-2.917 1.841 2.179.5 3.443 1.903 1.265 1.402 1.265 3.342 0 2.97-2.345 4.67-2.344 1.697-6.627 1.697z"/><path fill="#EC2B3A" d="M11.155 24.207a1.38 1.38 0 0 0-.747-.471H7.415v2.89h2.048q.94 0 1.455-.424.515-.421.515-1.162 0-.484-.278-.833"/><path fill="#EC2B3A" d="M10.057 32H.867A.863.863 0 0 1 0 31.14v-5.785c0-.244.105-.477.288-.64l8.87-7.888H3.985a.863.863 0 0 1-.867-.86c0-.476.388-.86.867-.86h7.442c.36 0 .682.22.81.553a.855.855 0 0 1-.231.948L1.735 25.74v4.54h8.322c2.614 0 4.64-.507 6.022-1.508 1.316-.952 1.955-2.23 1.955-3.907 0-1.066-.336-1.956-1.026-2.721-.617-.684-1.45-1.185-2.48-1.49a1.04 1.04 0 0 1-.759-.936 1.025 1.025 0 0 1 .646-1.005c.86-.36 1.557-.833 2.074-1.407.562-.625.835-1.32.835-2.124 0-1.624-.587-2.808-1.795-3.622-1.296-.872-3.315-1.315-6-1.315H1.734v5.028c0 .475-.388.86-.866.86a.863.863 0 0 1-.867-.86v-5.89c0-.475.388-.86.867-.86H9.53c3.08 0 5.362.528 6.974 1.614 1.695 1.141 2.554 2.839 2.554 5.045 0 1.228-.429 2.329-1.276 3.27q-.568.631-1.326 1.127 1.071.56 1.844 1.417c.974 1.08 1.468 2.382 1.468 3.868 0 2.234-.898 4.016-2.668 5.297-1.685 1.22-4.054 1.84-7.044 1.84z"/><path fill="#EC2B3A" d="M22.58 24.864c0 2.234-.898 4.016-2.668 5.297q-.93.675-2.136 1.102c-.085.031-.146-.082-.073-.136l.004-.003c2.067-1.497 3.16-3.661 3.16-6.26 0-1.788-.597-3.358-1.774-4.663a7 7 0 0 0-.742-.716q.117-.119.226-.24c1.049-1.166 1.58-2.533 1.58-4.063 0-3.225-1.583-4.937-2.53-5.673-.098-.076-.01-.228.106-.183a8 8 0 0 1 1.583.81c1.695 1.142 2.555 2.84 2.555 5.046 0 1.228-.486 2.117-1.276 3.27-.24.351-.617.814-.787 1.02a.15.15 0 0 0 .011.204c.246.238.885.866 1.294 1.32.974 1.08 1.468 2.381 1.468 3.868zM14.324 3.702l-1.502 1.23c-.087.07-.214-.011-.185-.12.086-.314.196-.734.185-.83a1.262 1.262 0 0 0-2.376-.428.102.102 0 0 1-.175.008l-.957-1.47a1.24 1.24 0 0 0 .328-.842C9.642.56 9.078 0 8.382 0s-1.26.56-1.26 1.25c0 .324.124.62.328.842l-.956 1.47a.101.101 0 0 1-.175-.008 1.262 1.262 0 0 0-2.377.428c-.01.096.1.516.185.83.03.109-.098.19-.185.12L2.44 3.701a.202.202 0 0 0-.277.248l.99 2.825a.92.92 0 0 0 .869.613h8.722c.391 0 .74-.246.868-.613l.99-2.825a.202.202 0 0 0-.277-.248"/><path fill="#fff" d="M37.238 19.153c1.571.51 2.765 1.723 2.765 3.555 0 2.237-1.735 4.417-5.83 4.417h-7.076V12.038h7.186c2.9 0 4.934 1.94 4.934 4.042 0 1.67-1.14 2.613-1.98 2.964zm-3.904-1.16c1.057 0 1.57-.432 1.57-1.213 0-.7-.434-1.24-1.57-1.24h-1.952v2.45h1.952zm.486 5.631c1.167 0 1.707-.51 1.707-1.372s-.54-1.372-1.707-1.372h-2.438v2.747h2.438zm16.028-2.721c-1.653 1.454-2.602 2.13-2.602 2.184l.055.108c.027 0 1.166-.027 2.602-.027h5.284v3.96H41.66v-4.123l5.802-5.066c1.493-1.294 2.115-1.778 2.115-1.805L49.522 16h-7.618v-3.961H55.19v4.123zm15.215-9.157c4.799 0 8.213 3.258 8.213 7.841s-3.418 7.842-8.213 7.842-8.19-3.259-8.19-7.842 3.419-7.84 8.19-7.84m0 11.776c2.33 0 3.85-1.592 3.85-3.935s-1.517-3.934-3.85-3.934-3.823 1.592-3.823 3.934 1.517 3.935 3.823 3.935M85.84 27.13l-5.912-8.486h-.108c0 .027.027 1.615.027 3.342v5.148h-4.282V12.046h4.445l5.938 8.193h.082v-8.193h4.308v15.088h-4.502zm7.542-15.092h11.957v3.961h-7.672v1.832h5.257v3.343h-5.257v1.994h7.808v3.96H93.382z"/><path fill="#EC2B3A" fill-rule="evenodd" d="M36.673 19.57v-.908l.35-.146c.708-.297 1.63-1.074 1.63-2.436 0-1.702-1.69-3.47-4.37-3.47H27.66v13.944h6.513c1.95 0 3.264-.519 4.081-1.231a3.4 3.4 0 0 0 1.183-2.615c0-1.522-.971-2.556-2.373-3.011zm1.116-.823c.714-.479 1.428-1.345 1.428-2.667 0-2.102-2.033-4.042-4.934-4.042h-7.186v15.087h7.077c4.094 0 5.829-2.18 5.829-4.417 0-1.593-.903-2.718-2.172-3.32a5 5 0 0 0-.593-.236v-.108a3 3 0 0 0 .55-.297m-5.02-.182v-.004h-1.952v-3.593h2.517c.648 0 1.194.154 1.583.5.401.355.552.839.552 1.312 0 .528-.18 1.014-.606 1.35-.4.316-.938.435-1.53.435zm.565-.572q.08 0 .158-.003.22-.01.406-.047c.677-.135 1.007-.537 1.007-1.163 0-.7-.435-1.24-1.571-1.24h-1.952v2.45h1.952zm-1.952 5.634V20.88h2.438c1.167 0 1.707.51 1.707 1.372s-.54 1.372-1.707 1.372v.003zm3.003.528v.044h-3.568v-3.89h3.003c.653 0 1.23.14 1.651.493.44.369.62.891.62 1.45s-.18 1.08-.62 1.45c-.295.246-.666.39-1.086.453m13.425-1.541a57 57 0 0 0 2.038-1.71l5.343-4.743v-4.123H41.904v3.961h7.618l.054.135a.3.3 0 0 1-.054.055c-.057.05-.157.133-.307.259l-.148.122c-.342.287-.868.729-1.606 1.37l-5.802 5.065v4.124h13.528v-3.961h-5.284a129 129 0 0 0-2.545.026h-.057l-.055-.107q0-.011.055-.06.1-.086.368-.3zm6.813 1.125h-4.72c-.715 0-1.355.007-1.821.014-.328.004-.58.01-.702.012l-.08.001h-.345l-.273-.542v-.137c0-.172.077-.293.091-.314l.001-.002c.026-.04.05-.07.064-.084a1 1 0 0 1 .075-.076q.065-.057.153-.129a41 41 0 0 1 .51-.41c.44-.354 1.083-.88 1.901-1.6l5.15-4.57V12.61H42.467v2.819H49.9l.24.594v.112a.58.58 0 0 1-.16.4l-.055.056-.108.093-.246.207-.134.112c-.34.285-.867.726-1.61 1.37v.001l-5.605 4.894v3.29h12.4zm31.213 3.395h4.502V12.046H86.03v8.193h-.082l-5.938-8.193h-4.445v15.088h4.282v-5.148a217 217 0 0 0-.026-3.266v-.011l-.001-.065h.109l5.91 8.486zm.298-.572h3.64V12.618h-3.18v8.192h-.932l-5.938-8.192H76.13v13.944h3.152v-4.576a213 213 0 0 0-.027-3.342v-.572h.966zm11.533-3.394v-1.994h5.257V17.83h-5.257v-1.832h7.672v-3.961H93.382v15.09h12.093v-3.96zm7.244.571h-7.809v-3.137h5.258v-2.2h-5.258v-2.974h7.672v-2.819H93.946v13.948h10.965zm-32.2-4.152c0-4.236-3.13-7.27-7.648-7.27-4.49 0-7.625 3.033-7.625 7.27 0 4.239 3.112 7.27 7.625 7.27 4.515 0 7.648-3.033 7.648-7.27m-4.447 3.247c-.791.813-1.905 1.259-3.201 1.259-1.285 0-2.393-.447-3.18-1.26-.785-.813-1.207-1.948-1.207-3.246 0-1.295.414-2.43 1.196-3.244.785-.816 1.894-1.261 3.191-1.261s2.412.445 3.202 1.26c.79.812 1.212 1.948 1.212 3.245 0 1.299-.423 2.434-1.213 3.247m5.012-3.247c0-4.583-3.414-7.84-8.213-7.84-4.771 0-8.19 3.257-8.19 7.84s3.395 7.842 8.19 7.842 8.213-3.259 8.213-7.842m-4.363 0c0 2.343-1.52 3.935-3.85 3.935-2.306 0-3.823-1.592-3.823-3.935s1.49-3.934 3.823-3.934 3.85 1.592 3.85 3.934" clip-rule="evenodd"/><path fill="#EC2B3A" d="M116.324 22.145h5.639v4.985H107.73l-.054-4.985c4.285-3.019 8.135-5.523 8.135-7.652 0-.727-.463-1.24-1.167-1.24-.785 0-1.139.51-1.139 1.24V16h-6.373v-1.534c0-3.64 2.629-6.466 7.509-6.466 4.554 0 7.808 1.94 7.808 6.168 0 3.18-3.173 5.337-6.128 7.841v.136zM140 24.433h-1.248v2.694h-6.343v-2.694h-8.648v-4.985l8.648-11.18h6.343v11.18H140zm-7.591-4.985v-3.474h-.136l-2.602 3.366v.108z"/></svg>